<svg xmlns="http://www.w3.org/2000/svg" width="316" height="64" viewBox="0 0 316 64" fill="none">
  <path d="M32 6 L56 19 L32 32 L8 19 Z" fill="none" stroke="#e9ecef" stroke-width="3.5" stroke-linejoin="round"></path>
  <path d="M8 19 L8 45 L32 58 L32 32" fill="none" stroke="#e9ecef" stroke-width="3.5" stroke-linejoin="round"></path>
  <path d="M37 37.5 L56 27" stroke="#cdde00" stroke-width="4" stroke-linecap="round"></path>
  <path d="M37 46.5 L56 36" stroke="#cdde00" stroke-width="4" stroke-linecap="round"></path>
  <path d="M37 55.5 L56 45" stroke="#cdde00" stroke-width="4" stroke-linecap="round"></path>
  <g transform="translate(84,10) scale(0.232) translate(-150,-779)">
    <g fill="#e9ecef">
    <path fill-rule="evenodd" d=" M220.035645,807.664185   C204.016296,808.398315 199.556717,815.547729 201.233978,837.627930   C211.580093,837.627930 221.979797,837.627930 232.674149,837.627930   C232.674149,847.049011 232.674149,855.970581 232.674149,865.429443   C222.348312,865.429443 211.956329,865.429443 201.145111,865.429443   C201.145111,899.363647 201.145111,932.767883 201.145111,966.552612   C191.348816,966.552612 181.965363,966.552612 172.102081,966.552612   C172.102081,933.268799 172.102081,899.891113 172.102081,865.903931   C164.608414,865.903931 157.561462,865.903931 150.187195,865.903931   C150.187195,856.398438 150.187195,847.495544 150.187195,838.040405   C157.128586,838.040405 164.189178,838.040405 171.477127,838.040405   C171.908295,830.771240 171.826263,823.960632 172.794235,817.302795   C176.315475,793.082581 192.269440,779.329590 216.864731,779.184265   C222.132416,779.153137 227.405579,780.054016 232.797440,780.536438   C232.797440,790.307251 232.797440,799.416260 232.797440,808.956177   C228.591339,808.514771 224.546036,808.090271 220.035645,807.664185  z"></path>
    <path fill-rule="evenodd" d=" M275.903809,963.041016   C249.364746,948.646118 238.375534,925.825073 240.435745,896.991516   C242.431244,869.064148 256.306671,848.590881 283.251801,838.648804   C301.799561,831.805054 329.362000,832.099121 347.771698,854.155823   C347.771698,848.478699 347.771698,843.484253 347.771698,838.164917   C357.617828,838.164917 366.871490,838.164917 376.508972,838.164917   C376.508972,880.757507 376.508972,923.461731 376.508972,966.563110   C367.255280,966.563110 357.892609,966.563110 348.030396,966.563110   C348.030396,961.468628 348.030396,956.427856 348.030396,950.776428   C326.723633,973.199768 302.472809,974.186523 275.903809,963.041016  M270.283966,894.001221   C270.164215,894.825439 270.055542,895.651489 269.923126,896.473694   C267.224182,913.229614 275.246887,929.566895 289.907227,937.163208   C305.202393,945.088562 324.040039,942.478638 336.301178,930.735413   C348.079712,919.454407 351.517761,900.400574 344.463867,885.497253   C337.262970,870.283325 322.212891,861.775574 304.900085,863.131836   C288.142181,864.444580 275.505798,875.477356 270.283966,894.001221  z"></path>
    <path fill-rule="evenodd" d=" M435.966125,839.984619   C460.879303,829.873413 482.073730,834.007812 504.048065,853.367554   C504.048065,830.453857 504.048065,807.908936 504.048065,785.026672   C513.875427,785.026672 523.281494,785.026672 532.963379,785.026672   C532.963379,845.497742 532.963379,905.889832 532.963379,966.649170   C523.623901,966.649170 514.364380,966.649170 504.632721,966.649170   C504.632721,961.757324 504.632721,956.683777 504.632721,951.740723   C503.882477,951.518616 503.413971,951.279236 503.336121,951.371094   C487.152557,970.457275 466.267151,973.201355 443.762421,967.245972   C416.808868,960.113525 398.440002,936.276062 396.917358,908.390625   C395.454773,881.604553 404.470551,859.769165 427.224304,844.504395   C429.828583,842.757263 432.800049,841.557495 435.966125,839.984619  M498.856812,923.236145   C499.404785,922.208801 499.994110,921.201111 500.494446,920.151001   C507.690918,905.046326 504.984436,886.822388 493.810425,875.061035   C482.642548,863.306213 464.644775,859.791443 449.142761,866.337830   C434.535065,872.506470 425.342621,887.578369 425.954926,904.356445   C426.565094,921.075256 437.371826,935.116821 453.306702,939.895630   C470.619781,945.087891 487.697205,939.020325 498.856812,923.236145  z"></path>
    <path fill-rule="evenodd" d=" M582.966675,910.855103   C586.474365,934.912903 610.716431,948.853516 635.175293,940.900391   C643.506104,938.191528 650.449097,933.561584 655.675537,925.861450   C663.276672,930.942566 670.678467,935.890381 678.388123,941.043945   C669.792603,953.701782 658.487000,961.869751 644.427856,966.471130   C610.964050,977.423401 576.344849,963.876648 560.256470,933.469727   C547.888733,910.094727 551.345154,878.681580 568.525818,858.315125   C585.992737,837.609558 614.080750,829.700378 640.097107,838.161743   C666.696655,846.812866 683.746338,873.146057 682.543640,903.738342   C682.484680,905.235901 682.331665,906.729736 681.624634,908.607788   C650.170227,908.993774 619.313477,908.965698 588.457336,909.080139   C586.624939,909.086914 584.796814,910.237000 582.966675,910.855103  M630.829102,863.415039   C606.309937,855.987366 585.514404,873.226868 584.286316,888.074951   C606.118896,888.074951 627.932373,888.077637 649.745911,888.064270   C650.538025,888.063782 651.330017,887.904907 652.568970,887.771851   C650.078003,875.513062 643.001526,867.751892 630.829102,863.415039  z"></path>
    <path fill-rule="evenodd" d=" M583.434509,910.798035   C584.796814,910.237000 586.624939,909.086914 588.457336,909.080139   C619.313477,908.965698 650.170227,908.993774 681.492798,908.989929   C680.360779,909.546875 678.764587,910.584106 677.164307,910.590393   C646.077332,910.712646 614.989746,910.714478 583.434509,910.798035  z"></path>
    </g>
    <g fill="#cdde00">
    <path fill-rule="evenodd" d=" M699.958679,850.000000   C699.959534,828.201904 699.959534,806.903748 699.959534,785.163269   C709.645813,785.163269 719.006287,785.163269 728.949585,785.163269   C728.949585,807.849548 728.949585,830.517090 728.949585,853.738464   C731.303894,851.538391 733.064209,849.864990 734.854736,848.224609   C751.075134,833.365173 778.098450,830.195862 799.424561,841.189880   C822.356750,853.011841 834.554504,872.225952 835.990601,897.886780   C837.486145,924.611755 827.793030,946.450378 804.596497,960.545044   C785.847900,971.936951 765.561890,973.697876 745.388611,963.989624   C739.442688,961.128296 734.552734,956.072815 728.987061,951.878296   C728.987061,956.453430 728.987061,961.324890 728.987061,966.602112   C719.283752,966.602112 710.057068,966.602112 699.957825,966.602112   C699.957825,927.935852 699.957825,889.217896 699.958679,850.000000  M731.468323,887.171204   C727.253296,899.996338 727.468323,912.519165 734.863098,924.171204   C745.145264,940.372742 766.302551,946.233704 784.259033,938.174072   C801.808716,930.297058 810.739624,910.326233 805.413818,890.868835   C801.236450,875.606934 787.714722,864.486084 771.714783,863.153198   C754.038574,861.680725 739.515442,870.156372 731.468323,887.171204  z"></path>
    <path fill-rule="evenodd" d=" M987.054077,902.987061   C986.237915,942.458191 956.821106,970.346558 917.010620,969.876404   C879.423889,969.432556 850.802979,939.704163 851.049500,901.363098   C851.290588,863.872009 880.950195,834.928284 919.114807,834.940735   C957.627808,834.953308 986.811157,863.970886 987.054077,902.987061  M947.828857,875.684448   C927.091675,854.254272 892.216675,861.134888 882.819458,888.745422   C877.519775,904.316772 879.835388,918.861572 891.902832,930.652588   C903.603333,942.085022 917.735352,944.670898 932.991699,939.136108   C959.157104,929.643616 965.792542,895.603271 947.828857,875.684448  z"></path>
    <path fill-rule="evenodd" d=" M1083.861084,877.883423   C1079.089233,884.738342 1074.663574,891.406738 1069.861572,897.792053   C1067.901001,900.399109 1068.032349,902.198303 1069.831665,904.756836   C1083.052246,923.556824 1096.141113,942.449463 1109.269897,961.314026   C1110.297974,962.791382 1111.313721,964.277405 1113.165527,966.964050   C1106.840942,966.964050 1101.528809,966.286011 1096.455688,967.099304   C1084.321045,969.044556 1076.383057,964.889771 1070.387817,953.881958   C1064.784790,943.594238 1057.156494,934.409607 1049.924683,924.028992   C1047.340942,927.624756 1045.115967,930.635132 1042.981079,933.708191   C1035.949707,943.828735 1029.005981,954.010925 1021.872620,964.058655   C1020.947388,965.362000 1019.128235,966.808350 1017.689636,966.844238   C1007.896362,967.088135 998.094238,966.971924 987.240417,966.971924   C988.583435,964.834534 989.431946,963.354309 990.402527,961.959045   C1003.432068,943.227722 1016.398499,924.451355 1029.598022,905.840271   C1031.890747,902.607422 1032.015503,900.412476 1029.662231,897.119324   C1017.657654,880.319641 1005.919250,863.329712 994.099670,846.398010   C992.328064,843.860168 990.619446,841.278381 988.319275,837.888000   C999.633850,837.888000 1009.897034,837.766785 1020.150024,838.034851   C1021.497131,838.070068 1023.103577,839.878540 1024.062256,841.237915   C1031.739136,852.123901 1039.282715,863.103699 1046.885254,874.042358   C1047.811035,875.374451 1048.843018,876.632751 1050.147705,878.348572   C1057.890259,867.248596 1065.843384,856.799500 1072.683960,845.666870   C1076.518433,839.426392 1080.874756,837.187561 1087.971191,837.784424   C1095.407715,838.409912 1102.937622,837.924194 1111.829712,837.924194   C1102.199707,851.674988 1093.127808,864.628967 1083.861084,877.883423  z"></path>
    </g>
  </g>
</svg>